G04*
G04 #@! TF.GenerationSoftware,Altium Limited,Altium Designer,24.8.2 (39)*
G04*
G04 Layer_Physical_Order=2*
G04 Layer_Color=16711680*
%FSLAX44Y44*%
%MOMM*%
G71*
G04*
G04 #@! TF.SameCoordinates,8B70E0E9-E5F2-4D13-8D55-12FBB609F7A7*
G04*
G04*
G04 #@! TF.FilePolarity,Positive*
G04*
G01*
G75*
%ADD15C,2.0000*%
%ADD16R,2.0000X2.0000*%
%ADD21C,1.2700*%
%ADD22R,1.3500X1.3500*%
%ADD23C,1.3500*%
G04:AMPARAMS|DCode=24|XSize=1.95mm|YSize=1.95mm|CornerRadius=0.4875mm|HoleSize=0mm|Usage=FLASHONLY|Rotation=180.000|XOffset=0mm|YOffset=0mm|HoleType=Round|Shape=RoundedRectangle|*
%AMROUNDEDRECTD24*
21,1,1.9500,0.9750,0,0,180.0*
21,1,0.9750,1.9500,0,0,180.0*
1,1,0.9750,-0.4875,0.4875*
1,1,0.9750,0.4875,0.4875*
1,1,0.9750,0.4875,-0.4875*
1,1,0.9750,-0.4875,-0.4875*
%
%ADD24ROUNDEDRECTD24*%
%ADD25C,1.9500*%
%ADD26C,1.6000*%
G04:AMPARAMS|DCode=27|XSize=1.6mm|YSize=1.6mm|CornerRadius=0.4mm|HoleSize=0mm|Usage=FLASHONLY|Rotation=0.000|XOffset=0mm|YOffset=0mm|HoleType=Round|Shape=RoundedRectangle|*
%AMROUNDEDRECTD27*
21,1,1.6000,0.8000,0,0,0.0*
21,1,0.8000,1.6000,0,0,0.0*
1,1,0.8000,0.4000,-0.4000*
1,1,0.8000,-0.4000,-0.4000*
1,1,0.8000,-0.4000,0.4000*
1,1,0.8000,0.4000,0.4000*
%
%ADD27ROUNDEDRECTD27*%
G36*
X867410Y825500D02*
Y381000D01*
X869950Y378460D01*
X866140Y374650D01*
X351790D01*
Y827140D01*
X352690Y828036D01*
X867410Y825500D01*
D02*
G37*
%LPC*%
G36*
X576058Y789570D02*
X575710D01*
Y778550D01*
X586730D01*
Y778898D01*
X585892Y782024D01*
X584274Y784826D01*
X581986Y787115D01*
X579184Y788733D01*
X576058Y789570D01*
D02*
G37*
G36*
X573170D02*
X572822D01*
X569696Y788733D01*
X566894Y787115D01*
X564605Y784826D01*
X562987Y782024D01*
X562150Y778898D01*
Y777671D01*
X550365Y765887D01*
X483069D01*
X481588Y766742D01*
X478908Y767460D01*
X478790D01*
Y756920D01*
Y746380D01*
X478908D01*
X481588Y747098D01*
X483069Y747953D01*
X554080D01*
X556400Y748259D01*
X558563Y749155D01*
X560420Y750580D01*
X574831Y764990D01*
X576058D01*
X579184Y765828D01*
X581986Y767446D01*
X584274Y769734D01*
X585892Y772536D01*
X586730Y775662D01*
Y776010D01*
X574440D01*
Y777280D01*
X573170D01*
Y789570D01*
D02*
G37*
G36*
X629315Y789634D02*
X619565D01*
X617630Y789379D01*
X615826Y788632D01*
X614277Y787444D01*
X613088Y785895D01*
X612341Y784091D01*
X612086Y782155D01*
Y772405D01*
X612341Y770469D01*
X613088Y768666D01*
X614277Y767117D01*
X615826Y765928D01*
X617630Y765181D01*
X619565Y764926D01*
X629315D01*
X631251Y765181D01*
X633055Y765928D01*
X634604Y767117D01*
X635792Y768666D01*
X636539Y770469D01*
X636794Y772405D01*
Y782155D01*
X636539Y784091D01*
X635792Y785895D01*
X634604Y787444D01*
X633055Y788632D01*
X631251Y789379D01*
X629315Y789634D01*
D02*
G37*
G36*
X476250Y767460D02*
X476132D01*
X473452Y766742D01*
X471048Y765354D01*
X469086Y763392D01*
X467698Y760988D01*
X466980Y758308D01*
Y758190D01*
X476250D01*
Y767460D01*
D02*
G37*
G36*
Y755650D02*
X466980D01*
Y755532D01*
X467698Y752852D01*
X469086Y750448D01*
X471048Y748486D01*
X473452Y747098D01*
X476132Y746380D01*
X476250D01*
Y755650D01*
D02*
G37*
G36*
X553170Y649357D02*
Y641350D01*
X561177D01*
X560557Y643666D01*
X559334Y645784D01*
X557604Y647514D01*
X555486Y648737D01*
X553170Y649357D01*
D02*
G37*
G36*
X398230D02*
X395914Y648737D01*
X393796Y647514D01*
X392066Y645784D01*
X390843Y643666D01*
X390222Y641350D01*
X398230D01*
Y649357D01*
D02*
G37*
G36*
X741130Y648087D02*
Y640080D01*
X749137D01*
X748517Y642396D01*
X747294Y644514D01*
X745564Y646244D01*
X743446Y647467D01*
X741130Y648087D01*
D02*
G37*
G36*
X738590D02*
X736274Y647467D01*
X734156Y646244D01*
X732426Y644514D01*
X731203Y642396D01*
X730582Y640080D01*
X738590D01*
Y648087D01*
D02*
G37*
G36*
X498790Y649370D02*
X480210D01*
Y633299D01*
X418962D01*
X407558Y644703D01*
X406934Y645784D01*
X405204Y647514D01*
X403086Y648737D01*
X400770Y649357D01*
Y640080D01*
X399500D01*
Y638810D01*
X390222D01*
X390843Y636494D01*
X392066Y634376D01*
X393796Y632646D01*
X394877Y632022D01*
X408907Y617992D01*
X410765Y616567D01*
X412927Y615671D01*
X415248Y615365D01*
X536152D01*
X538473Y615671D01*
X540635Y616567D01*
X542492Y617992D01*
X556522Y632022D01*
X557604Y632646D01*
X559334Y634376D01*
X560557Y636494D01*
X561177Y638810D01*
X551900D01*
Y640080D01*
X550630D01*
Y649357D01*
X548314Y648737D01*
X546196Y647514D01*
X544466Y645784D01*
X543842Y644703D01*
X532438Y633299D01*
X498790D01*
Y649370D01*
D02*
G37*
G36*
X749137Y637540D02*
X741130D01*
Y629533D01*
X743446Y630153D01*
X745564Y631376D01*
X747294Y633106D01*
X748517Y635224D01*
X749137Y637540D01*
D02*
G37*
G36*
X738590D02*
X730582D01*
X731203Y635224D01*
X732426Y633106D01*
X734156Y631376D01*
X736274Y630153D01*
X738590Y629533D01*
Y637540D01*
D02*
G37*
G36*
X426720Y791287D02*
X394462D01*
X392141Y790981D01*
X389979Y790085D01*
X388122Y788660D01*
X377962Y778500D01*
X376537Y776643D01*
X375641Y774481D01*
X375335Y772160D01*
Y733806D01*
X375641Y731485D01*
X376537Y729323D01*
X377962Y727466D01*
X438668Y666760D01*
X440525Y665335D01*
X442687Y664439D01*
X445008Y664133D01*
X605166D01*
X632610Y636689D01*
Y630790D01*
X651190D01*
Y649370D01*
X645291D01*
X615221Y679440D01*
X613363Y680865D01*
X611201Y681761D01*
X608880Y682067D01*
X448722D01*
X393269Y737520D01*
Y746301D01*
X394539Y746993D01*
X395613Y746548D01*
X397320Y746324D01*
X405320D01*
X407027Y746548D01*
X408618Y747207D01*
X409984Y748256D01*
X411033Y749622D01*
X411692Y751213D01*
X411916Y752920D01*
Y760920D01*
X411692Y762627D01*
X411033Y764218D01*
X409984Y765584D01*
X408618Y766633D01*
X407027Y767292D01*
X405320Y767516D01*
X397320D01*
X395613Y767292D01*
X394753Y766936D01*
X393622Y767590D01*
X393516Y768693D01*
X398176Y773353D01*
X423006D01*
X427629Y768730D01*
X427103Y767460D01*
X425332D01*
X422652Y766742D01*
X420248Y765354D01*
X418286Y763392D01*
X416898Y760988D01*
X416180Y758308D01*
Y755532D01*
X416898Y752852D01*
X418286Y750448D01*
X420248Y748486D01*
X422652Y747098D01*
X424303Y746656D01*
X479562Y691398D01*
X481419Y689973D01*
X483581Y689077D01*
X485902Y688771D01*
X485902Y688771D01*
X767218D01*
X820570Y635419D01*
Y629520D01*
X839150D01*
Y648100D01*
X833251D01*
X777273Y704078D01*
X775415Y705503D01*
X773253Y706399D01*
X770932Y706705D01*
X489616D01*
X451211Y745110D01*
X451737Y746380D01*
X453508D01*
X456188Y747098D01*
X458592Y748486D01*
X460554Y750448D01*
X461942Y752852D01*
X462660Y755532D01*
Y758308D01*
X461942Y760988D01*
X460554Y763392D01*
X458592Y765354D01*
X456188Y766742D01*
X454537Y767184D01*
X433060Y788660D01*
X431203Y790085D01*
X429041Y790981D01*
X426720Y791287D01*
D02*
G37*
G36*
X483710Y559910D02*
X458630D01*
Y553252D01*
X458414Y553089D01*
X456753Y553426D01*
X455804Y555070D01*
X453470Y557405D01*
X450610Y559055D01*
X447421Y559910D01*
X444119D01*
X440930Y559055D01*
X438070Y557405D01*
X435736Y555070D01*
X434085Y552210D01*
X433727Y550877D01*
X432413D01*
X432055Y552210D01*
X430405Y555070D01*
X428070Y557405D01*
X425210Y559055D01*
X422021Y559910D01*
X421640D01*
Y547370D01*
Y534830D01*
X422021D01*
X425210Y535685D01*
X428070Y537336D01*
X430405Y539670D01*
X432055Y542530D01*
X432413Y543863D01*
X433727D01*
X434085Y542530D01*
X435736Y539670D01*
X438070Y537336D01*
X440930Y535685D01*
X444119Y534830D01*
X447421D01*
X450610Y535685D01*
X453470Y537336D01*
X455804Y539670D01*
X456753Y541314D01*
X458414Y541651D01*
X458630Y541488D01*
Y534830D01*
X483710D01*
Y559910D01*
D02*
G37*
G36*
X419100D02*
X418719D01*
X415530Y559055D01*
X412670Y557405D01*
X410336Y555070D01*
X408685Y552210D01*
X407830Y549021D01*
Y548640D01*
X419100D01*
Y559910D01*
D02*
G37*
G36*
Y546100D02*
X407830D01*
Y545719D01*
X408685Y542530D01*
X410336Y539670D01*
X412670Y537336D01*
X415530Y535685D01*
X418719Y534830D01*
X419100D01*
Y546100D01*
D02*
G37*
G36*
X719328Y579959D02*
X589280D01*
X586959Y579653D01*
X584797Y578757D01*
X582940Y577332D01*
X571510Y565902D01*
X570085Y564045D01*
X569189Y561883D01*
X568883Y559562D01*
Y553597D01*
X567816Y552530D01*
X566165Y549670D01*
X565310Y546481D01*
Y546100D01*
X577850D01*
Y544830D01*
X579120D01*
Y532290D01*
X579501D01*
X582690Y533145D01*
X585550Y534795D01*
X587884Y537130D01*
X589535Y539990D01*
X589893Y541323D01*
X591207D01*
X591565Y539990D01*
X593215Y537130D01*
X595550Y534795D01*
X598410Y533145D01*
X601599Y532290D01*
X604901D01*
X608090Y533145D01*
X610950Y534795D01*
X613284Y537130D01*
X614233Y538774D01*
X615895Y539111D01*
X616110Y538948D01*
Y532290D01*
X641190D01*
Y557370D01*
X616110D01*
Y550712D01*
X615895Y550549D01*
X614233Y550886D01*
X613284Y552530D01*
X610950Y554865D01*
X608090Y556515D01*
X604901Y557370D01*
X601599D01*
X598410Y556515D01*
X595550Y554865D01*
X593215Y552530D01*
X591565Y549670D01*
X591207Y548337D01*
X589893D01*
X589535Y549670D01*
X587884Y552530D01*
X586817Y553597D01*
Y555848D01*
X592994Y562025D01*
X715614D01*
X731680Y545959D01*
Y544449D01*
X732535Y541260D01*
X734185Y538400D01*
X736520Y536065D01*
X739380Y534415D01*
X742569Y533560D01*
X742950D01*
Y546100D01*
X745490D01*
Y533560D01*
X745871D01*
X749060Y534415D01*
X751920Y536065D01*
X754255Y538400D01*
X755905Y541260D01*
X756263Y542593D01*
X757577D01*
X757935Y541260D01*
X759585Y538400D01*
X761920Y536065D01*
X764780Y534415D01*
X767969Y533560D01*
X771271D01*
X774460Y534415D01*
X777320Y536065D01*
X779654Y538400D01*
X780603Y540044D01*
X782264Y540381D01*
X782480Y540218D01*
Y533560D01*
X807560D01*
Y558640D01*
X782480D01*
Y551982D01*
X782264Y551819D01*
X780603Y552156D01*
X779654Y553800D01*
X777320Y556134D01*
X774460Y557785D01*
X771271Y558640D01*
X767969D01*
X764780Y557785D01*
X761920Y556134D01*
X759585Y553800D01*
X757935Y550940D01*
X757577Y549607D01*
X756263D01*
X755905Y550940D01*
X754255Y553800D01*
X751920Y556134D01*
X749060Y557785D01*
X745871Y558640D01*
X744361D01*
X725668Y577332D01*
X723811Y578757D01*
X721649Y579653D01*
X719328Y579959D01*
D02*
G37*
G36*
X576580Y543560D02*
X565310D01*
Y543179D01*
X566165Y539990D01*
X567816Y537130D01*
X570150Y534795D01*
X573010Y533145D01*
X576199Y532290D01*
X576580D01*
Y543560D01*
D02*
G37*
G36*
X800048Y449130D02*
X796812D01*
X793686Y448292D01*
X790884Y446674D01*
X788596Y444386D01*
X786978Y441584D01*
X786140Y438458D01*
Y435222D01*
X786978Y432096D01*
X788596Y429294D01*
X790884Y427005D01*
X793686Y425387D01*
X796812Y424550D01*
X800048D01*
X803174Y425387D01*
X805976Y427005D01*
X808265Y429294D01*
X809883Y432096D01*
X810720Y435222D01*
Y438458D01*
X809883Y441584D01*
X808265Y444386D01*
X805976Y446674D01*
X803174Y448292D01*
X800048Y449130D01*
D02*
G37*
G36*
X416355Y450504D02*
X406605D01*
X404669Y450249D01*
X402865Y449502D01*
X401317Y448313D01*
X400128Y446764D01*
X399381Y444961D01*
X399126Y443025D01*
Y433275D01*
X399381Y431339D01*
X400128Y429535D01*
X401317Y427987D01*
X402865Y426798D01*
X404669Y426051D01*
X406605Y425796D01*
X411153D01*
X424952Y411998D01*
X426809Y410573D01*
X428971Y409677D01*
X431292Y409371D01*
X431292Y409371D01*
X563558D01*
X565879Y409677D01*
X568041Y410573D01*
X569898Y411998D01*
X582060Y424159D01*
X594475Y411744D01*
X596332Y410319D01*
X598495Y409423D01*
X600816Y409117D01*
X600816Y409117D01*
X729674D01*
X731995Y409423D01*
X734157Y410319D01*
X736014Y411744D01*
X748757Y424486D01*
X753305D01*
X755240Y424741D01*
X757044Y425488D01*
X758593Y426676D01*
X759782Y428225D01*
X760529Y430029D01*
X760784Y431965D01*
Y441715D01*
X760529Y443651D01*
X759782Y445454D01*
X758593Y447003D01*
X757044Y448192D01*
X755240Y448939D01*
X753305Y449194D01*
X743555D01*
X741619Y448939D01*
X739815Y448192D01*
X738266Y447003D01*
X737078Y445454D01*
X736331Y443651D01*
X736076Y441715D01*
Y437167D01*
X725960Y427051D01*
X641311D01*
X640825Y428224D01*
X641895Y429294D01*
X643513Y432096D01*
X644350Y435222D01*
Y438458D01*
X643513Y441584D01*
X641895Y444386D01*
X639606Y446674D01*
X636804Y448292D01*
X633678Y449130D01*
X630442D01*
X627316Y448292D01*
X624514Y446674D01*
X622226Y444386D01*
X620608Y441584D01*
X619770Y438458D01*
Y435222D01*
X620608Y432096D01*
X622226Y429294D01*
X623295Y428224D01*
X622809Y427051D01*
X604530D01*
X594414Y437167D01*
Y441715D01*
X594159Y443651D01*
X593412Y445454D01*
X592223Y447003D01*
X590674Y448192D01*
X588871Y448939D01*
X586935Y449194D01*
X577185D01*
X575249Y448939D01*
X573445Y448192D01*
X571896Y447003D01*
X570708Y445454D01*
X569961Y443651D01*
X569706Y441715D01*
Y437167D01*
X559844Y427305D01*
X469652D01*
X469285Y428575D01*
X471314Y430604D01*
X472932Y433406D01*
X473770Y436532D01*
Y439768D01*
X472932Y442894D01*
X471314Y445696D01*
X469026Y447984D01*
X466224Y449603D01*
X463098Y450440D01*
X459862D01*
X456736Y449603D01*
X453934Y447984D01*
X451646Y445696D01*
X450027Y442894D01*
X449190Y439768D01*
Y436532D01*
X450027Y433406D01*
X451646Y430604D01*
X453675Y428575D01*
X453308Y427305D01*
X435006D01*
X423834Y438477D01*
Y443025D01*
X423579Y444961D01*
X422832Y446764D01*
X421643Y448313D01*
X420094Y449502D01*
X418291Y450249D01*
X416355Y450504D01*
D02*
G37*
%LPD*%
D15*
X744220Y546100D02*
D03*
X769620D02*
D03*
X420370Y547370D02*
D03*
X445770D02*
D03*
X577850Y544830D02*
D03*
X603250D02*
D03*
D16*
X795020Y546100D02*
D03*
X471170Y547370D02*
D03*
X628650Y544830D02*
D03*
D21*
X477520Y756920D02*
X554080D01*
X574440Y777280D01*
X399500Y640080D02*
X415248Y624332D01*
X536152D01*
X551900Y640080D01*
X411480Y438150D02*
X431292Y418338D01*
X563558D01*
X582060Y436840D01*
X600816Y418084D01*
X729674D01*
X748430Y436840D01*
X426720Y782320D02*
X452120Y756920D01*
X394462Y782320D02*
X426720D01*
X384302Y772160D02*
X394462Y782320D01*
X384302Y733806D02*
Y772160D01*
Y733806D02*
X445008Y673100D01*
X608880D01*
X641900Y640080D01*
X719328Y570992D02*
X744220Y546100D01*
X589280Y570992D02*
X719328D01*
X577850Y559562D02*
X589280Y570992D01*
X577850Y544830D02*
Y559562D01*
X426720Y756920D02*
X485902Y697738D01*
X770932D01*
X829860Y638810D01*
D22*
X489500Y640080D02*
D03*
X829860Y638810D02*
D03*
X641900Y640080D02*
D03*
D23*
X399500D02*
D03*
X739860Y638810D02*
D03*
X551900Y640080D02*
D03*
D24*
X624440Y777280D02*
D03*
X748430Y436840D02*
D03*
X582060D02*
D03*
X411480Y438150D02*
D03*
D25*
X574440Y777280D02*
D03*
X798430Y436840D02*
D03*
X632060D02*
D03*
X461480Y438150D02*
D03*
D26*
X426720Y756920D02*
D03*
X452120D02*
D03*
X477520D02*
D03*
D27*
X401320D02*
D03*
M02*
