M48
;Layer_Color=9474304
;FILE_FORMAT=4:4
METRIC,LZ
;TYPE=PLATED
T01F00S00C0.8500
T02F00S00C1.1000
T03F00S00C1.3000
%
T01
X0082986Y0063881
X0073986
X006419Y0064008
X005519
X004895
X003995
T02
X0040132Y0075692
X0042672
X0045212
X0047752
T03
X0079843Y0043684
X0079502Y005461
X0076962
X0074422
X0074843Y0043684
X0063206
X0058206
X0057785Y0054483
X0060325
X0062865
X0047117Y0054737
X0044577
X0042037
X0041148Y0043815
X0046148
X0057444Y0077728
X0062444
M30
