G04*
G04 #@! TF.GenerationSoftware,Altium Limited,Altium Designer,24.8.2 (39)*
G04*
G04 Layer_Color=16711935*
%FSLAX44Y44*%
%MOMM*%
G71*
G04*
G04 #@! TF.SameCoordinates,8B70E0E9-E5F2-4D13-8D55-12FBB609F7A7*
G04*
G04*
G04 #@! TF.FilePolarity,Negative*
G04*
G01*
G75*
%ADD13R,1.5532X1.5532*%
%ADD14C,1.5532*%
%ADD15C,2.0000*%
%ADD16R,2.0000X2.0000*%
G04:AMPARAMS|DCode=17|XSize=2.1532mm|YSize=2.1532mm|CornerRadius=0.5891mm|HoleSize=0mm|Usage=FLASHONLY|Rotation=180.000|XOffset=0mm|YOffset=0mm|HoleType=Round|Shape=RoundedRectangle|*
%AMROUNDEDRECTD17*
21,1,2.1532,0.9750,0,0,180.0*
21,1,0.9750,2.1532,0,0,180.0*
1,1,1.1782,-0.4875,0.4875*
1,1,1.1782,0.4875,0.4875*
1,1,1.1782,0.4875,-0.4875*
1,1,1.1782,-0.4875,-0.4875*
%
%ADD17ROUNDEDRECTD17*%
%ADD18C,2.1532*%
%ADD19C,1.8032*%
G04:AMPARAMS|DCode=20|XSize=1.8032mm|YSize=1.8032mm|CornerRadius=0.5016mm|HoleSize=0mm|Usage=FLASHONLY|Rotation=0.000|XOffset=0mm|YOffset=0mm|HoleType=Round|Shape=RoundedRectangle|*
%AMROUNDEDRECTD20*
21,1,1.8032,0.8000,0,0,0.0*
21,1,0.8000,1.8032,0,0,0.0*
1,1,1.0032,0.4000,-0.4000*
1,1,1.0032,-0.4000,-0.4000*
1,1,1.0032,-0.4000,0.4000*
1,1,1.0032,0.4000,0.4000*
%
%ADD20ROUNDEDRECTD20*%
D13*
X489500Y640080D02*
D03*
X829860Y638810D02*
D03*
X641900Y640080D02*
D03*
D14*
X399500D02*
D03*
X739860Y638810D02*
D03*
X551900Y640080D02*
D03*
D15*
X744220Y546100D02*
D03*
X769620D02*
D03*
X420370Y547370D02*
D03*
X445770D02*
D03*
X577850Y544830D02*
D03*
X603250D02*
D03*
D16*
X795020Y546100D02*
D03*
X471170Y547370D02*
D03*
X628650Y544830D02*
D03*
D17*
X624440Y777280D02*
D03*
X748430Y436840D02*
D03*
X582060D02*
D03*
X411480Y438150D02*
D03*
D18*
X574440Y777280D02*
D03*
X798430Y436840D02*
D03*
X632060D02*
D03*
X461480Y438150D02*
D03*
D19*
X426720Y756920D02*
D03*
X452120D02*
D03*
X477520D02*
D03*
D20*
X401320D02*
D03*
M02*
