G04*
G04 #@! TF.GenerationSoftware,Altium Limited,Altium Designer,24.8.2 (39)*
G04*
G04 Layer_Color=8388736*
%FSLAX44Y44*%
%MOMM*%
G71*
G04*
G04 #@! TF.SameCoordinates,146C959F-E077-41F2-9E7F-822B015231E1*
G04*
G04*
G04 #@! TF.FilePolarity,Negative*
G04*
G01*
G75*
G04:AMPARAMS|DCode=13|XSize=1.1mm|YSize=0.6mm|CornerRadius=0.051mm|HoleSize=0mm|Usage=FLASHONLY|Rotation=0.000|XOffset=0mm|YOffset=0mm|HoleType=Round|Shape=RoundedRectangle|*
%AMROUNDEDRECTD13*
21,1,1.1000,0.4980,0,0,0.0*
21,1,0.9980,0.6000,0,0,0.0*
1,1,0.1020,0.4990,-0.2490*
1,1,0.1020,-0.4990,-0.2490*
1,1,0.1020,-0.4990,0.2490*
1,1,0.1020,0.4990,0.2490*
%
%ADD13ROUNDEDRECTD13*%
%ADD14R,8.2000X2.6000*%
%ADD15R,1.1046X1.3562*%
%ADD17R,1.5082X1.4057*%
%ADD18R,1.6000X1.0500*%
%ADD19R,1.6582X0.9561*%
%ADD20R,2.0032X1.5032*%
G04:AMPARAMS|DCode=21|XSize=2.1532mm|YSize=2.1532mm|CornerRadius=0.5891mm|HoleSize=0mm|Usage=FLASHONLY|Rotation=0.000|XOffset=0mm|YOffset=0mm|HoleType=Round|Shape=RoundedRectangle|*
%AMROUNDEDRECTD21*
21,1,2.1532,0.9750,0,0,0.0*
21,1,0.9750,2.1532,0,0,0.0*
1,1,1.1782,0.4875,-0.4875*
1,1,1.1782,-0.4875,-0.4875*
1,1,1.1782,-0.4875,0.4875*
1,1,1.1782,0.4875,0.4875*
%
%ADD21ROUNDEDRECTD21*%
%ADD22C,2.1532*%
%ADD23R,1.5532X1.5532*%
%ADD24C,1.5532*%
%ADD25C,1.4732*%
D13*
X561340Y838150D02*
D03*
Y828650D02*
D03*
Y819150D02*
D03*
X534340D02*
D03*
Y828650D02*
D03*
Y838150D02*
D03*
D14*
X389890Y695900D02*
D03*
Y751900D02*
D03*
D15*
X473148Y831850D02*
D03*
X459032D02*
D03*
D17*
X679450Y838572D02*
D03*
Y820048D02*
D03*
X624840Y838572D02*
D03*
Y820048D02*
D03*
D18*
X673100Y745000D02*
D03*
Y715500D02*
D03*
X610870Y745000D02*
D03*
Y715500D02*
D03*
D19*
X549910Y744781D02*
D03*
Y718259D02*
D03*
D20*
X478790Y718560D02*
D03*
Y749560D02*
D03*
D21*
X461010Y610870D02*
D03*
X633730Y609600D02*
D03*
X587210Y938530D02*
D03*
D22*
X511010Y610870D02*
D03*
X683730Y609600D02*
D03*
X537210Y938530D02*
D03*
D23*
X627930Y678180D02*
D03*
D24*
X537930D02*
D03*
D25*
X624840Y912114D02*
D03*
M02*
